<?xml version="1.0" encoding="UTF-8"?>
<svg version="1.1" xmlns="http://www.w3.org/2000/svg" width="1500" height="1500">
<path d="M0 0 C4.69885043 0.00863638 9.397676 -0.00042202 14.09652514 -0.00706416 C22.30381795 -0.01629473 30.51104926 -0.01455747 38.71834124 -0.00533163 C50.92310205 0.00834971 63.12781624 0.00467611 75.33258054 -0.00229023 C97.13628639 -0.01417974 118.93996321 -0.00915949 140.74366744 0.00298804 C159.82062034 0.01354354 178.89756336 0.01806107 197.97451915 0.01669253 C199.24221316 0.0166085 200.50990717 0.01652447 201.81601616 0.01643789 C206.96252091 0.01608562 212.10902566 0.0157016 217.25553041 0.01527231 C253.14409514 0.01232504 289.03265553 0.01465079 324.92121733 0.0291828 C325.59660848 0.02945599 326.27199962 0.02972918 326.96785716 0.03001064 C337.93389326 0.03446365 348.89992924 0.03917873 359.86596522 0.04390953 C403.36882351 0.06266028 446.87166443 0.06907098 490.37452639 0.06352747 C493.12486197 0.06318049 495.87519754 0.06283487 498.62553311 0.06248918 C499.6455691 0.06236078 499.6455691 0.06236078 500.68621188 0.06222978 C508.21799246 0.06128357 515.74977305 0.06037185 523.28155364 0.05950201 C524.29479635 0.05938364 524.29479635 0.05938364 525.32850861 0.05926287 C561.82675379 0.0550369 598.32499679 0.06035224 634.82324119 0.06901331 C638.67798764 0.06992031 642.5327341 0.07082596 646.38748056 0.07172854 C648.94442355 0.07232964 651.50136655 0.07293826 654.05830955 0.07355445 C671.8628908 0.07777108 689.66746889 0.07835607 707.47205048 0.07644895 C730.41447149 0.07400364 753.35687558 0.07809716 776.29929197 0.09365895 C788.42375267 0.10169401 800.54818519 0.10432194 812.67264756 0.0990166 C820.78028825 0.09603062 828.88790412 0.10037007 836.99553889 0.11056517 C841.60854915 0.1161687 846.22150214 0.11873265 850.83451277 0.1123986 C868.52354296 0.09013285 886.05679664 0.0806347 903.63258303 2.3792013 C904.81924026 2.53347722 906.00589749 2.68775313 907.22851403 2.84670407 C909.97874058 3.22339042 912.70974638 3.65704507 915.44508303 4.1292013 C916.43459964 4.29911585 917.42411624 4.4690304 918.44361819 4.64409388 C973.73215353 14.50800174 1027.58545196 39.70331883 1068.63258303 78.3792013 C1069.85827651 79.42495254 1071.08746658 80.4666191 1072.32008303 81.5042013 C1082.68973819 90.5671113 1092.15596039 100.53804708 1100.63258303 111.3792013 C1101.55952951 112.50776032 1102.48939643 113.63392481 1103.42164553 114.75810755 C1153.19700112 175.11998228 1171.20107533 249.04674378 1171.0179857 325.80178293 C1171.01025137 330.47337934 1171.02020354 335.14494784 1171.0277157 339.81654007 C1171.0384658 347.97311336 1171.03827499 356.12962689 1171.03057421 364.2862028 C1171.01915381 376.41594535 1171.02506554 388.54563817 1171.03419914 400.67538046 C1171.04994269 422.34784685 1171.0486487 444.02028659 1171.0399624 465.69275547 C1171.0323987 484.65872506 1171.03045355 503.62468491 1171.03403033 522.59065569 C1171.03425949 523.85150584 1171.03448864 525.11235599 1171.03472474 526.41141372 C1171.03565884 531.53033815 1171.03661405 536.64926257 1171.03760403 541.76818698 C1171.04442491 577.46312455 1171.04565186 613.15805887 1171.03441371 648.85299528 C1171.03420296 649.52465674 1171.03399221 650.19631819 1171.03377508 650.88833301 C1171.03034087 661.7933968 1171.02668219 672.69846051 1171.02300456 683.60352421 C1171.00843642 726.84785104 1171.00911423 770.09214999 1171.02369632 813.33647669 C1171.02736034 824.23743472 1171.03099367 835.13839276 1171.03441371 846.03935088 C1171.03473072 847.04637402 1171.03473072 847.04637402 1171.03505415 848.07374107 C1171.04640307 884.37403555 1171.04388031 920.67432859 1171.03685952 956.97462399 C1171.03589745 962.08360355 1171.03495893 967.19258311 1171.03403033 972.30156268 C1171.03367448 974.18833657 1171.03367448 974.18833657 1171.03331145 976.1132271 C1171.02990687 995.06246019 1171.03387518 1014.01168244 1171.04146899 1032.96091402 C1171.05006513 1054.51803632 1171.04786317 1076.07512795 1171.03162676 1097.63224645 C1171.02285097 1109.67950847 1171.02219481 1121.72670399 1171.03356528 1133.77396421 C1171.04033536 1141.84028728 1171.03602897 1149.90655749 1171.02305097 1157.97287278 C1171.01597525 1162.55570792 1171.01334583 1167.13841184 1171.02426892 1171.72124244 C1171.19709632 1250.15291757 1150.75942331 1326.64411248 1097.63258303 1386.3792013 C1096.42401871 1387.77483464 1095.2156569 1389.1706434 1094.00758303 1390.5667013 C1092.88482594 1391.83951663 1091.75969987 1393.11024504 1090.63258303 1394.3792013 C1089.92488772 1395.17970911 1089.21719241 1395.98021693 1088.48805178 1396.80498255 C1081.31537981 1404.85743711 1073.89776722 1412.44627685 1065.63258303 1419.3792013 C1065.09133792 1419.83424036 1064.5500928 1420.28927943 1063.99244632 1420.75810755 C1047.8467693 1434.2726052 1030.89363578 1445.90180152 1012.63258303 1456.3792013 C1011.97048831 1456.76060267 1011.30839358 1457.14200404 1010.62623538 1457.53496302 C965.29928111 1483.38670212 912.37662689 1494.58678354 860.58431281 1494.50783575 C859.02811223 1494.50918612 857.47191198 1494.5109721 855.91571234 1494.51314799 C851.66928011 1494.51783631 847.42286955 1494.51638999 843.17643631 1494.51387022 C838.5450533 1494.51222705 833.91367472 1494.51638632 829.28229315 1494.51977939 C821.17473676 1494.52491861 813.06718634 1494.52635317 804.95962847 1494.52532328 C792.90275086 1494.52379548 780.84587983 1494.52796648 768.7890035 1494.53319791 C745.99922977 1494.54286026 723.2094583 1494.54568173 700.41968276 1494.54625496 C682.81682545 1494.54671483 665.21396903 1494.54877485 647.61111201 1494.55195559 C642.54076405 1494.55285316 637.47041608 1494.55374297 632.40006812 1494.55463047 C630.50920883 1494.55496204 630.50920883 1494.55496204 628.58015037 1494.55530031 C593.13029741 1494.5614531 557.68044468 1494.56540692 522.23059119 1494.56495703 C520.88101071 1494.56494125 519.53143022 1494.56492552 518.18184974 1494.56490982 C512.0890675 1494.56483644 505.99628526 1494.56474827 499.90350302 1494.56465594 C497.18676732 1494.56461481 494.47003162 1494.56457467 491.75329593 1494.56453462 C490.39352298 1494.56451423 489.03375004 1494.56449321 487.67397709 1494.56447157 C444.69085589 1494.56379155 401.70774294 1494.5711058 358.72462405 1494.58501185 C347.89643836 1494.58851314 337.06825266 1494.59198272 326.2400669 1494.59527624 C325.2398367 1494.59558056 325.2398367 1494.59558056 324.21939984 1494.59589101 C288.17224305 1494.60679156 252.12508572 1494.60875279 216.07792742 1494.60804863 C211.00475026 1494.607974 205.93157311 1494.60792529 200.85839595 1494.60789431 C199.60929119 1494.60788266 198.36018644 1494.607871 197.07323002 1494.60785899 C176.9983674 1494.60782826 156.92351176 1494.61420586 136.84865121 1494.62282657 C116.6617895 1494.6313159 96.47493797 1494.63228299 76.28807547 1494.62571725 C64.30670895 1494.62203013 52.32537342 1494.62382888 40.34401021 1494.63365959 C32.32622538 1494.63968043 24.30846286 1494.63834086 16.29067904 1494.6311891 C11.73205584 1494.62732528 7.17349237 1494.62648031 2.61487349 1494.63464645 C-20.64799105 1494.67362496 -43.92160399 1494.53784493 -66.92991697 1490.6292013 C-67.94835691 1490.45928675 -68.96679685 1490.2893722 -70.01609861 1490.11430872 C-120.51173224 1481.33364239 -168.60075186 1459.74863715 -208.36741697 1427.3792013 C-208.88143064 1426.96138392 -209.39544431 1426.54356654 -209.92503415 1426.11308802 C-228.12199176 1411.23939308 -244.85825776 1394.9253228 -259.03343259 1376.14580286 C-259.91775418 1374.97469177 -260.80703685 1373.80730925 -261.70140134 1372.64384974 C-291.87749128 1333.37088013 -311.21726675 1287.02632412 -319.61741697 1238.3167013 C-319.76847898 1237.45778284 -319.91954099 1236.59886439 -320.07518064 1235.7139181 C-323.65464719 1213.53253116 -323.65975807 1191.24046024 -323.62435207 1168.84515327 C-323.61922415 1164.17984446 -323.62581983 1159.51454854 -323.63083874 1154.84924162 C-323.63802545 1146.69303245 -323.63786569 1138.5368498 -323.63274442 1130.38063944 C-323.6251495 1118.25164063 -323.62906243 1106.122664 -323.63516103 1093.99366532 C-323.64567112 1072.32569574 -323.64478827 1050.65773798 -323.63900321 1028.98976729 C-323.63396556 1010.02738376 -323.63266174 991.06500455 -323.6350485 972.10262049 C-323.63520127 970.84319111 -323.63535404 969.58376173 -323.63551144 968.28616782 C-323.63613415 963.17331064 -323.63677095 958.06045347 -323.63743096 952.94759629 C-323.64198005 917.28231582 -323.642792 881.6170368 -323.63530408 845.95175684 C-323.63516358 845.28027431 -323.63502309 844.60879177 -323.63487833 843.91696128 C-323.63258871 833.01403966 -323.63014966 822.11111807 -323.62769798 811.20819649 C-323.61798608 767.97189967 -323.61843686 724.73561525 -323.62815915 681.49931849 C-323.63060174 670.60176093 -323.63302392 659.70420336 -323.63530408 648.80664576 C-323.63544498 648.1355501 -323.63558587 647.46445445 -323.63573104 646.77302256 C-323.6432934 610.50397299 -323.64161656 574.23492406 -323.63693463 537.96587408 C-323.63629322 532.86251009 -323.63566754 527.7591461 -323.6350485 522.65578211 C-323.63489034 521.39926911 -323.63473219 520.14275611 -323.63456924 518.84816696 C-323.63229745 499.90100056 -323.63494896 480.95383896 -323.6400076 462.00667323 C-323.64573283 440.45580366 -323.64428215 418.90494773 -323.63344612 397.35407985 C-323.62758622 385.30338293 -323.62717185 373.25271556 -323.63473846 361.20201942 C-323.63924046 353.14081967 -323.63640112 345.07964349 -323.62772893 337.01844721 C-323.62299625 332.43351229 -323.62129231 327.84863585 -323.62854089 323.26370288 C-323.66123302 300.9649953 -323.52717397 278.73498884 -319.67991697 256.6917013 C-319.51403074 255.72587122 -319.3481445 254.76004115 -319.17723142 253.76494349 C-310.07090677 203.13039531 -289.07123003 156.82809818 -257.36741697 116.3792013 C-256.21499509 114.90580286 -256.21499509 114.90580286 -255.03929197 113.4026388 C-242.42683219 97.65974837 -228.21878266 82.85658152 -212.36741697 70.3792013 C-211.23655418 69.44928387 -210.10775606 68.51685168 -208.98069822 67.5823263 C-173.0103213 37.932514 -129.74541545 17.61490227 -84.36741697 7.3792013 C-83.51728025 7.18632532 -82.66714353 6.99344935 -81.79124509 6.79472865 C-54.68930671 0.80283903 -27.61511984 -0.07077738 0 0 Z " fill="#FEFEFE" transform="translate(324.3674169657752,0.6207986986264586)"/>
<path d="M0 0 C1.03823631 -0.00175304 2.07647263 -0.00350607 3.14617065 -0.00531223 C6.64802056 -0.00998843 10.14982926 -0.00750255 13.65168095 -0.00507832 C16.17864629 -0.00694548 18.70561135 -0.00924581 21.23257595 -0.01194364 C26.73869306 -0.01679654 32.24479757 -0.01851429 37.75091648 -0.01748753 C45.93908477 -0.01596434 54.1272433 -0.02012055 62.3154097 -0.02536215 C77.79145022 -0.03504195 93.26748743 -0.03784665 108.74353062 -0.03841921 C120.69695458 -0.03887855 132.65037724 -0.04093583 144.60380077 -0.04411983 C148.04323182 -0.04501737 151.48266288 -0.04590719 154.92209393 -0.04679471 C155.77713347 -0.04701576 156.63217302 -0.04723681 157.51312286 -0.04746456 C181.57110349 -0.0536206 205.62908367 -0.05756495 229.68706512 -0.05712128 C230.59445819 -0.0571057 231.50185125 -0.05709012 232.43674107 -0.05707407 C237.03587672 -0.05699096 241.63501237 -0.05689192 246.23414802 -0.05678936 C247.60427276 -0.05675944 247.60427276 -0.05675944 249.00207679 -0.05672892 C250.84923032 -0.05668848 252.69638386 -0.05664669 254.5435374 -0.05660353 C283.27043199 -0.05599102 311.99731476 -0.06349199 340.72420597 -0.07717609 C372.99436525 -0.09254168 405.26451678 -0.10114198 437.53467995 -0.10021287 C440.97694019 -0.10013824 444.41920044 -0.10008953 447.86146069 -0.10005856 C448.70903866 -0.1000469 449.55661663 -0.10003525 450.42987878 -0.10002324 C464.06284637 -0.09999248 477.69580371 -0.10637538 491.32876825 -0.11499082 C505.0363835 -0.1234741 518.74398376 -0.12445201 532.45160019 -0.1178815 C540.59154072 -0.11418999 548.73143569 -0.11600624 556.87137138 -0.12582384 C562.95543998 -0.13254069 569.03945507 -0.1287594 575.12352432 -0.12095062 C577.58053935 -0.11941355 580.03755932 -0.12123958 582.49456852 -0.12681069 C597.37046627 -0.1583007 611.8546652 -0.11351333 626.20980167 4.31613445 C626.91330753 4.5289909 627.61681339 4.74184734 628.34163761 4.96115398 C665.08051002 16.49430737 696.97770156 41.83102279 715.09359074 75.98898602 C721.25104833 88.11584093 725.997279 100.83576673 728.83480167 114.12863445 C740.72807217 108.62527584 752.47875993 102.85013123 764.19417667 96.98019695 C764.93095142 96.61108952 765.66772617 96.24198208 766.42682743 95.86168957 C772.59086166 92.77263117 778.75230626 89.6784198 784.9136591 86.58401775 C790.25597752 83.90120574 795.59931716 81.22044312 800.94417667 78.54269695 C801.6892592 78.16932264 802.43434174 77.79594833 803.20200253 77.41125965 C812.82661979 72.59146859 822.48988123 67.87206318 832.22184086 63.27202129 C839.64944744 59.74105888 846.9869306 56.04514705 854.31557941 52.31460094 C856.35020616 51.27924123 858.38588502 50.24598116 860.42192936 49.21341228 C861.7828671 48.52305613 863.14379847 47.83268744 864.50472355 47.14230633 C865.18225744 46.79862892 865.85979134 46.45495152 866.55785656 46.10085964 C870.04424798 44.33101627 873.52742569 42.55523923 877.00545597 40.76901531 C880.44201267 39.0046565 883.88623988 37.25617505 887.33608532 35.51795292 C888.63028963 34.8622776 889.92162849 34.20091086 891.20981503 33.53349018 C903.9465896 26.94050062 903.9465896 26.94050062 910.83480167 28.12863445 C913.01580906 29.38905144 913.01580906 29.38905144 914.83480167 31.12863445 C915.33816624 33.16769409 915.33816624 33.16769409 915.34273624 35.5491209 C915.35401554 36.45330257 915.36529484 37.35748425 915.37691593 38.28906536 C915.36477055 39.77356686 915.36477055 39.77356686 915.3523798 41.28805828 C915.36289371 42.8543372 915.36289371 42.8543372 915.37362003 44.45225811 C915.39126439 47.91366237 915.37955137 51.37425271 915.36605167 54.8356657 C915.36874533 57.23839252 915.3726267 59.64111828 915.37764835 62.04384136 C915.38355266 67.08531327 915.37495238 72.12650205 915.35628605 77.16794109 C915.33353315 83.62783376 915.34659112 90.08706037 915.3705759 96.54692841 C915.38503982 101.51151311 915.38042442 106.47594034 915.37006474 111.44052982 C915.36739721 113.82195076 915.3706681 116.20338602 915.37998295 118.58479023 C915.39015368 121.91725324 915.37463694 125.24864377 915.3523798 128.58102703 C915.36047672 129.564622 915.36857365 130.54821697 915.37691593 131.56161785 C915.30666563 137.24577685 914.72891 140.67717852 910.83480167 145.12863445 C909.15464115 146.57403851 909.15464115 146.57403851 907.40340519 147.58713055 C906.35372059 148.19485302 906.35372059 148.19485302 905.28283024 148.81485271 C900.14839267 151.57034765 894.9552188 154.20001981 889.73714542 156.79269695 C888.45831718 157.43151244 887.17963894 158.07062829 885.90110111 158.71002483 C883.2219475 160.04882263 880.54148267 161.38494408 877.85994816 162.71896648 C874.49741917 164.39186149 871.13744577 166.06980734 867.77841187 167.74970722 C865.13188031 169.07283375 862.4842912 170.39383309 859.8363905 171.71421719 C858.01835137 172.62096126 856.20084625 173.52877579 854.3833704 174.43664837 C846.86979121 178.17301704 839.3156217 181.81551567 831.73934269 185.42306805 C821.45609448 190.32402842 811.24725118 195.36150678 801.06798649 200.47445965 C798.16242284 201.93382275 795.25547709 203.39040273 792.34822941 204.84640789 C786.17592961 207.93817767 780.00523294 211.03313759 773.83480167 214.12863445 C766.66496312 217.72550018 759.49440906 221.32092533 752.32213688 224.91293621 C749.50641076 226.32395753 746.6919328 227.73744437 743.87752628 229.15109539 C733.62678171 234.29084276 723.32625403 239.31115367 712.97268677 244.24053955 C705.2804165 247.90517045 697.64035839 251.65984477 690.02620792 255.4841032 C688.75228625 256.12200485 687.47827123 256.75972012 686.20417118 257.39726543 C682.9266792 259.03787241 679.65039302 260.68087174 676.37441349 262.32449627 C673.06572745 263.98399746 669.75587966 265.64117815 666.4461298 267.29855633 C653.2485467 273.90816749 653.2485467 273.90816749 640.05648136 280.52878094 C631.99919677 284.57331229 623.90566875 288.53810401 615.79354191 292.47140789 C585.48675339 307.1668822 555.38996841 322.28682089 525.29476261 337.40964031 C513.79533076 343.18261699 502.22591969 348.81131156 490.65218449 354.43356609 C467.94840204 365.46711928 445.4027122 376.82068551 422.83480167 388.12863445 C436.25699969 394.85151467 449.68040401 401.57198164 463.10517311 408.28972626 C469.34120498 411.41029925 475.57686816 414.53160442 481.81160831 417.6547575 C487.84724082 420.67816931 493.88397307 423.69937628 499.92133236 426.71933842 C502.20532815 427.86224831 504.48897659 429.00585267 506.77224255 430.15021992 C518.94274833 436.24944511 531.14474637 442.26368567 543.43908119 448.10951996 C552.5510538 452.45016293 561.58265604 456.94431696 570.60161686 461.47445965 C573.50718051 462.93382275 576.41412625 464.39040273 579.32137394 465.84640789 C586.53187043 469.45822129 593.74013554 473.07447881 600.94844913 476.69064617 C607.08049409 479.76666354 613.21342937 482.84089329 619.34746647 485.91293621 C622.16319259 487.32395753 624.97767055 488.73744437 627.79207706 490.15109539 C636.92236949 494.72903921 646.08423257 499.22699586 655.30745792 503.61496258 C665.59145424 508.50783412 675.79502297 513.54839453 685.97200871 518.65965557 C688.94478445 520.15261912 691.91893851 521.64280755 694.89339542 523.13241863 C702.27084202 526.82771032 709.64605885 530.52744334 717.02132511 534.22708416 C723.2942916 537.3735585 729.56814626 540.5182497 735.84310246 543.6607542 C738.72530497 545.10501603 741.60626046 546.55174191 744.48714542 547.99862957 C754.69544825 553.11676488 764.95180933 558.11682507 775.26374149 563.02274609 C784.43334314 567.39405916 793.52437204 571.91504142 802.60161686 576.47445965 C805.50718051 577.93382275 808.41412625 579.39040273 811.32137394 580.84640789 C818.53187043 584.45822129 825.74013554 588.07447881 832.94844913 591.69064617 C839.08049409 594.76666354 845.21342937 597.84089329 851.34746647 600.91293621 C854.16319259 602.32395753 856.97767055 603.73744437 859.79207706 605.15109539 C870.06724283 610.30257111 880.38362723 615.35005759 890.7875452 620.23733807 C911.22193213 629.90289536 911.22193213 629.90289536 914.83480167 637.12863445 C914.93506218 638.56611731 914.97418469 640.00809974 914.98197269 641.44905376 C914.989128 642.35619625 914.9962833 643.26333874 915.00365543 644.19797039 C915.00768879 645.6949345 915.00768879 645.6949345 915.01180363 647.22214031 C915.01837482 648.27099911 915.02494602 649.3198579 915.03171635 650.4005003 C915.0514754 653.88149359 915.06311599 657.36244375 915.07308292 660.8434782 C915.07715845 662.02941633 915.08123398 663.21535446 915.08543301 664.43723011 C915.10630199 670.71058384 915.12060178 676.98391561 915.12996769 683.25729656 C915.1410513 689.75218837 915.17547161 696.24673936 915.21513939 702.74151039 C915.24121838 707.72308798 915.24965162 712.70458317 915.25324917 717.68622303 C915.25813545 720.08131056 915.26980689 722.47639392 915.28828716 724.87141514 C915.31249939 728.21646746 915.31174654 731.56062192 915.30477238 734.90573406 C915.31758244 735.90168591 915.33039249 736.89763775 915.34359074 737.92376995 C915.33664692 738.83373226 915.3297031 739.74369457 915.32254887 740.6812315 C915.32493722 741.47229762 915.32732557 742.26336374 915.3297863 743.07840157 C914.83480167 745.12863445 914.83480167 745.12863445 913.01536179 746.86904526 C909.53410183 748.87997695 906.66458847 748.91036375 902.83480167 748.12863445 C898.00947324 746.24951424 893.45453884 743.89188976 888.86214542 741.5153532 C887.4945283 740.8227835 886.12614922 740.13171661 884.75705814 739.44206524 C881.15021066 737.62057834 877.55317675 735.78051639 873.95815372 733.93582439 C870.38234236 732.10413591 866.79905506 730.28722922 863.21566105 728.47043133 C862.51796919 728.11666455 861.82027733 727.76289778 861.10144329 727.3984108 C859.70028516 726.6879783 858.29909423 725.97761049 856.89787006 725.26730824 C854.78824144 724.19706782 852.67967123 723.12476363 850.57122135 722.05220318 C843.0381968 718.22458703 835.47997407 714.47126467 827.83870792 710.86300945 C811.8652577 703.3156894 796.10123076 695.33709906 780.30452824 687.42868328 C775.70779177 685.12743321 771.10923128 682.82985423 766.51015568 680.53328323 C762.9320102 678.74601881 759.35482095 676.95684741 755.77791691 675.16709995 C754.08143741 674.31852883 752.38466538 673.47054225 750.68758488 672.62317371 C748.32682712 671.44407091 745.96737465 670.26239505 743.60823917 669.08005047 C742.92148106 668.73768353 742.23472294 668.39531658 741.52715397 668.04257488 C737.20982156 665.874537 733.01119347 663.55762524 728.83480167 661.12863445 C728.57698917 662.38804852 728.31917667 663.64746258 728.05355167 664.9450407 C722.14587905 691.39013818 709.31210015 713.54724433 690.83480167 733.12863445 C690.17351261 733.85437664 689.51222355 734.58011883 688.83089542 735.3278532 C677.74036659 747.04972144 664.11122398 755.80355913 649.83480167 763.12863445 C648.85898136 763.63136883 647.88316105 764.1341032 646.87777042 764.65207195 C639.78992325 768.07665404 632.42269573 770.11039323 624.83480167 772.12863445 C623.84995792 772.41867352 622.86511417 772.70871258 621.85042667 773.0075407 C620.93777042 773.27437664 620.02511417 773.54121258 619.08480167 773.81613445 C618.30620792 774.04687664 617.52761417 774.27761883 616.72542667 774.5153532 C608.93775987 776.16760143 601.01342701 776.27562819 593.08229733 776.26564884 C591.52078297 776.26962658 591.52078297 776.26962658 589.92772287 776.27368468 C586.44645303 776.28133187 582.96521873 776.28193509 579.48394108 776.2825346 C576.95978704 776.28655224 574.43563365 776.29099096 571.91148102 776.29581416 C565.70614312 776.30650098 559.50081507 776.31252776 553.29546972 776.31652303 C545.85920806 776.32154769 538.42295726 776.33227756 530.98670204 776.34300477 C512.16080502 776.3698056 493.33490287 776.38488428 474.50899237 776.39834589 C469.40651742 776.40201907 464.30404277 776.40602169 459.20156813 776.41009855 C427.49771589 776.43536293 395.7938631 776.45739926 364.09000301 776.4698267 C356.74989031 776.47274776 349.40977762 776.47571534 342.06966496 776.47873211 C341.15779862 776.47910302 340.24593229 776.47947393 339.30643364 776.47985608 C309.76087863 776.49200373 280.21538329 776.52293725 250.66985629 776.56465363 C220.26719592 776.6075016 189.86456707 776.63407531 159.46187571 776.63930141 C155.16199126 776.64004177 150.86210687 776.64095244 146.56222248 776.64195919 C145.71605124 776.64214981 144.86988 776.64234042 143.99806721 776.64253681 C130.41846039 776.64604091 116.8389287 776.66629466 103.25934941 776.69275583 C89.59136171 776.71898622 75.92346021 776.72659178 62.25545095 776.71565454 C54.15081819 776.7097075 46.04647927 776.71743117 37.94189137 776.74548537 C31.86653767 776.76494599 25.79150496 776.75780722 19.71613158 776.74091621 C17.27590634 776.73813307 14.83565281 776.74361943 12.39547275 776.75872914 C-28.86388406 776.99836297 -63.92679033 763.28173834 -93.35269833 734.37863445 C-108.51983898 719.06515212 -120.35980651 700.64910709 -127.16519833 680.12863445 C-127.71627254 678.52955242 -127.71627254 678.52955242 -128.27847958 676.8981657 C-133.40851395 661.28420652 -133.490602 646.15722119 -133.50113583 629.8825407 C-133.50757224 627.53894757 -133.51430121 625.19535522 -133.52130795 622.85176373 C-133.53322413 617.96429866 -133.53699402 613.07690402 -133.53580379 608.18942547 C-133.53559954 601.92940387 -133.56303655 595.66983082 -133.59734821 589.40991592 C-133.61957122 584.5809194 -133.62364294 579.75203228 -133.62258434 574.92298985 C-133.62494203 572.61412206 -133.63377492 570.30525134 -133.64924908 567.99643421 C-133.66883938 564.77528441 -133.6631006 561.55512233 -133.65103817 558.33395672 C-133.66227718 557.38477367 -133.6735162 556.43559063 -133.68509579 555.45764446 C-133.62285686 548.91870875 -132.35944648 545.34205404 -127.62644482 540.58064556 C-123.51032962 536.80353204 -119.13484971 534.31131736 -114.09928036 531.96090984 C-113.32261391 531.58723467 -112.54594746 531.21355949 -111.74574566 530.82856083 C-110.06550282 530.02130953 -108.38300041 529.21874771 -106.69848919 528.42044163 C-102.08066803 526.23102959 -97.48047103 524.00498639 -92.87711239 521.78537273 C-91.91506578 521.32273116 -90.95301918 520.86008959 -89.96181965 520.38342857 C-79.49379298 515.34247953 -69.10446799 510.14735081 -58.71988583 504.9372282 C-56.83706216 503.99390154 -54.95418849 503.05067465 -53.07126522 502.10754681 C-47.39313778 499.26261083 -41.71654733 496.4146168 -36.04019833 493.56613445 C-28.43471931 489.74975182 -20.82843438 485.93498817 -13.21988583 482.1247282 C-12.30768024 481.66786507 -11.39547466 481.21100193 -10.45562649 480.74029446 C-0.06230276 475.53798498 10.35106153 470.39699075 20.86217594 465.43599224 C30.673728 460.77860142 40.37424311 455.89821323 50.08480167 451.03488445 C51.45830091 450.34705474 51.45830091 450.34705474 52.85954762 449.64532948 C59.5193838 446.30925729 66.17728131 442.96932517 72.83480167 439.62863445 C80.41686558 435.82401514 87.99967808 432.02090081 95.58480167 428.22238445 C96.94948739 427.53891665 96.94948739 427.53891665 98.34174252 426.84164143 C110.15259807 420.92994787 121.99859675 415.11482407 133.93685246 409.46408367 C142.44922926 405.42686761 150.85499009 401.17186434 159.27230167 396.94113445 C160.99811598 396.07570632 162.72402732 395.21047165 164.45003605 394.34543133 C168.57940191 392.27537165 172.70748558 390.20277775 176.83480167 388.12863445 C175.71106144 387.58191082 174.58732121 387.03518719 173.42952824 386.47189617 C149.10177041 374.62523455 124.83901266 362.65295345 100.63948917 350.5466032 C99.12383869 349.78839653 99.12383869 349.78839653 97.57756901 349.01487255 C87.33815647 343.89183668 77.1010711 338.76417475 66.86688328 333.63070965 C42.40153847 321.3202795 42.40153847 321.3202795 17.74327946 309.40391827 C7.95260304 304.75832554 -1.72602991 299.88749679 -11.41519833 295.03488445 C-12.33097778 294.57627466 -13.24675724 294.11766487 -14.19028759 293.64515781 C-21.81535158 289.8255797 -29.4378054 286.00080259 -37.06021786 282.1759367 C-67.42239401 266.90025674 -67.42239401 266.90025674 -98.03336239 252.1325407 C-103.09425442 249.74930799 -108.13669209 247.32950304 -113.16519833 244.87863445 C-114.14746395 244.41457195 -115.12972958 243.95050945 -116.14176083 243.47238445 C-123.40730124 239.90815708 -128.65698632 235.89095246 -133.16519833 229.12863445 C-133.41688061 227.10354137 -133.41688061 227.10354137 -133.41916561 224.74179363 C-133.42480526 223.84483776 -133.43044491 222.94788189 -133.43625546 222.02374554 C-133.43220699 221.0419331 -133.42815853 220.06012066 -133.42398739 219.04855633 C-133.42749203 218.01240185 -133.43099667 216.97624737 -133.43460751 215.90869427 C-133.44343306 212.47152346 -133.43756926 209.03455749 -133.43082333 205.59738445 C-133.43217056 203.20663698 -133.43411158 200.81588978 -133.43662167 198.42514324 C-133.43957472 193.40473107 -133.43527245 188.38438994 -133.42594051 183.36398602 C-133.41459515 176.94959829 -133.42107306 170.53537885 -133.43308544 164.12099743 C-133.44034123 159.17769403 -133.43799822 154.23442994 -133.43282986 149.2911253 C-133.43150107 146.92779298 -133.4331139 144.56445703 -133.43778896 142.20112896 C-133.44290982 138.88194747 -133.4350641 135.56303078 -133.42398739 132.24386883 C-133.42803585 131.27825024 -133.43208431 130.31263165 -133.43625546 129.31775188 C-133.39588805 122.73606268 -132.53199049 116.56165456 -131.16519833 110.12863445 C-130.9048077 108.90015789 -130.64441708 107.67168133 -130.37613583 106.4059782 C-124.3015854 82.13616226 -111.26361525 61.21741964 -94.16519833 43.12863445 C-93.41883114 42.31781414 -92.67246395 41.50699383 -91.90347958 40.6716032 C-81.38978166 29.63656489 -68.70065645 21.04512405 -55.16519833 14.12863445 C-54.5021368 13.78703289 -53.83907528 13.44543133 -53.15592098 13.0934782 C-40.93147118 6.92003139 -28.56520975 3.72278114 -15.16519833 1.12863445 C-14.50238682 0.95709793 -13.83957532 0.78556141 -13.15667862 0.60882682 C-8.77054276 -0.09523563 -4.43541249 -0.00941822 0 0 Z " fill="#000000" transform="translate(357.16519832611084,359.8713655471802)"/>
<path d="M0 0 C1.50670326 -0.00487653 1.50670326 -0.00487653 3.04384497 -0.00985157 C6.43082017 -0.01956435 9.81776341 -0.02214511 13.20475101 -0.02475739 C15.64922095 -0.03020308 18.09368998 -0.03606647 20.538158 -0.0423131 C26.56547881 -0.05651515 32.59279108 -0.06598474 38.62012273 -0.0734018 C43.6330993 -0.07972785 48.6460674 -0.0883888 53.65903759 -0.09856033 C54.7439549 -0.10076083 54.7439549 -0.10076083 55.85078974 -0.10300579 C57.32591769 -0.1060064 58.80104563 -0.10901064 60.27617357 -0.11201844 C79.38313392 -0.15054668 98.49010775 -0.17555412 117.59709255 -0.19819555 C120.0727549 -0.20113949 122.54841719 -0.20412952 125.02407947 -0.20713353 C156.52265518 -0.24528733 188.0212358 -0.27879411 219.51982751 -0.30039268 C227.52637948 -0.30588667 235.5329313 -0.31158627 243.53948307 -0.31735992 C244.42417457 -0.31799235 245.30886607 -0.31862478 246.22036641 -0.31927637 C274.89922598 -0.33995353 303.57797229 -0.38591918 332.25677433 -0.44601261 C361.74419558 -0.50768775 391.23155617 -0.54660669 420.7190429 -0.55589593 C424.8851781 -0.55721264 429.05131318 -0.55877459 433.21744823 -0.56047821 C434.44732068 -0.5609664 434.44732068 -0.5609664 435.70203903 -0.56146445 C448.88875355 -0.56733729 462.07531304 -0.59689538 475.26196879 -0.63518443 C488.52153726 -0.67313649 501.78093461 -0.68531666 515.04055177 -0.67142183 C522.91409093 -0.66393311 530.78703629 -0.67583348 538.66048038 -0.71584499 C544.54619301 -0.74358797 550.4314827 -0.73456199 556.31722773 -0.71147853 C558.69350204 -0.70783254 561.06983068 -0.71597188 563.44601243 -0.73726004 C577.77353679 -0.85785857 589.5654363 -0.59813895 600.70666879 9.45129824 C607.71529774 16.6747943 611.31822374 24.606599 611.24480534 34.65431976 C611.24339039 35.3825444 611.24197544 36.11076904 611.24051762 36.8610611 C611.23492567 39.1841164 611.22237471 41.5070749 611.20964909 43.83010101 C611.20463304 45.4062715 611.20007032 46.98244349 611.19597721 48.55861664 C611.18495889 52.419982 611.16769983 56.2812751 611.14714909 60.14260101 C606.15791622 62.64989235 601.1671808 65.15416257 596.17522526 67.65602875 C594.48896989 68.50161963 592.80307813 69.34793613 591.11760807 70.19509125 C581.78808143 74.88364724 572.43199078 79.49869552 562.99480534 83.96681976 C552.03430971 89.17013276 541.18255066 94.5844884 530.33464909 100.01760101 C529.44299109 100.46414724 528.55133308 100.91069347 527.63265514 101.37077141 C521.13606668 104.62521884 514.64141804 107.88352803 508.14714909 111.14260101 C501.63816619 114.40905802 495.12845786 117.67405351 488.61702824 120.9356308 C486.06720714 122.2136892 483.51863937 123.49421968 480.97014713 124.77492523 C472.29224992 129.12728107 463.57781283 133.38956929 454.81121159 137.56056976 C444.35719954 142.53587116 433.98557773 147.66318864 423.63955021 152.85881805 C420.59956247 154.38538225 417.55820003 155.90917898 414.51653385 157.43239594 C408.0589172 160.66682912 401.60290163 163.90444912 395.14714909 167.14260101 C387.64688322 170.90467212 380.14590613 174.66531171 372.64321232 178.42253876 C369.69453337 179.90004101 366.74710033 181.38000591 363.79973698 182.86013031 C353.25746335 188.14526135 342.67314009 193.32772626 332.01545811 198.37665558 C326.18283427 201.14417834 320.4110248 204.00934638 314.67449284 206.97072601 C313.22728512 207.71432831 311.7800274 208.45783331 310.33269596 209.20119476 C308.17188174 210.31286928 306.01425788 211.4295562 303.86272526 212.55910492 C301.70307089 213.69022834 299.53386771 214.80079167 297.36199284 215.90822601 C296.40111004 216.42198792 296.40111004 216.42198792 295.42081547 216.94612885 C291.2195138 219.06006246 288.65437325 219.48639335 284.14714909 218.14260101 C281.44426823 217.01027679 281.44426823 217.01027679 278.68230534 215.58791351 C277.63236393 215.05424164 276.58242252 214.52056976 275.50066471 213.97072601 C274.41462955 213.40869476 273.3285944 212.84666351 272.20964909 212.26760101 C270.0976977 211.18427535 267.98435106 210.10366653 265.86980534 209.02541351 C265.29291965 208.73108429 264.71603397 208.43675507 264.12166691 208.13350677 C258.69437947 205.38280105 253.20246599 202.77452323 247.70574284 200.16603851 C238.46621582 195.77368222 229.29264122 191.25780399 220.14714909 186.67385101 C219.49778826 186.34844204 218.84842743 186.02303307 218.179389 185.68776321 C212.8266883 183.00444674 207.47662471 180.31588781 202.12664127 177.62715912 C198.10843235 175.60797026 194.08928211 173.59067526 190.06902409 171.57556915 C188.25044041 170.663173 186.43313067 169.74823893 184.61589909 168.83315277 C177.2007529 165.1150701 169.73924138 161.50719045 162.24871159 157.94338226 C151.02599272 152.59822972 139.89688822 147.07683947 128.78759098 141.50040436 C125.41154457 139.80583427 122.03413928 138.11399818 118.65642643 136.42275238 C110.88124372 132.52905053 103.10796138 128.6315639 95.33480167 124.73382568 C87.61257358 120.86168583 79.88948929 116.99126599 72.16503239 113.1235733 C68.88397062 111.4798699 65.60414995 109.83371014 62.32439518 108.18740082 C51.31153049 102.6676644 40.25883756 97.2477126 29.13520718 91.95457649 C21.4645205 88.30362509 13.84439245 84.56433237 6.24871159 80.75978851 C4.98366299 80.12760332 3.71855521 79.49553655 2.45339298 78.8635788 C-0.13615109 77.5695273 -2.72499995 76.27409955 -5.31330013 74.97756195 C-8.63267312 73.31496209 -11.95390091 71.65610327 -15.27561665 69.99818993 C-17.86014068 68.70772536 -20.44371855 67.41537609 -23.02700329 66.12243271 C-24.25395656 65.50862325 -25.48120566 64.89540475 -26.70875835 64.28279495 C-28.40016907 63.43835084 -30.09017183 62.59108835 -31.78009701 61.74367523 C-33.21825268 61.0240007 -33.21825268 61.0240007 -34.685462 60.28978729 C-36.85285091 59.14260101 -36.85285091 59.14260101 -37.85285091 58.14260101 C-38.12182642 54.05046329 -38.12436371 49.95424058 -38.14801693 45.85402679 C-38.15942505 44.48087416 -38.17969524 43.10776182 -38.20954037 41.73488617 C-38.45178137 30.59179988 -37.67913006 20.32417966 -29.72785091 11.83010101 C-20.69760087 2.47202011 -12.58580904 -0.00841993 0 0 Z " fill="#FEFEFE" transform="translate(368.85285091400146,467.8573989868164)"/>
<path d="M0 0 C1.45099538 0.58998578 2.88052887 1.23506811 4.28588867 1.92675781 C5.51224785 2.52509178 5.51224785 2.52509178 6.76338196 3.13551331 C8.07740242 3.78773109 8.07740242 3.78773109 9.41796875 4.453125 C10.33962326 4.90497665 11.26127777 5.35682831 12.21086121 5.82237244 C15.20589023 7.29259773 18.19671136 8.77117053 21.1875 10.25 C23.24864595 11.26386439 25.31000737 12.27729083 27.37158203 13.2902832 C38.94548242 18.98328048 50.51152128 24.69472643 62.01635742 30.52636719 C66.42822762 32.7541959 70.85667384 34.93938145 75.32519531 37.05126953 C88.3870696 43.22865266 101.3312873 49.62356214 114.25 56.09375 C115.16283375 56.55088694 116.0756675 57.00802387 117.01616287 57.47901344 C124.64420224 61.30007949 132.26963374 65.12633987 139.89501953 68.95269775 C145.60429945 71.81734511 151.31447678 74.68019009 157.02575684 77.54084778 C159.6420541 78.85214706 162.25709942 80.16591666 164.87207031 81.4798584 C173.59597996 85.85495973 182.35442025 90.14347227 191.16845703 94.33422852 C202.5712922 99.75910087 213.87225297 105.37730786 225.15786362 111.04134941 C228.65609248 112.79698528 232.15563721 114.54998223 235.6555481 116.30226135 C243.06325183 120.01157523 250.46921263 123.72436189 257.875 127.4375 C266.51764745 131.77072233 275.16100836 136.10251054 283.80603409 140.4309864 C287.2395106 142.15094419 290.67176681 143.87331972 294.10397339 145.59580994 C296.21232267 146.65180101 298.32072826 147.70767965 300.42919922 148.76342773 C301.37058746 149.23670502 302.31197571 149.7099823 303.28189087 150.19760132 C308.79167971 152.95271447 314.34596366 155.55410806 320 158 C320.09991855 162.37412668 320.17195484 166.74762437 320.21972656 171.12255859 C320.23966981 172.60640048 320.2668349 174.09016555 320.30175781 175.57373047 C320.50434009 184.40989274 320.31198749 192.01930045 316 200 C315.443125 201.03125 314.88625 202.0625 314.3125 203.125 C307.62698215 211.43672489 300.17374948 216.84427761 289.38659959 218.36952018 C286.72028143 218.50649048 284.0801772 218.52857802 281.41051292 218.50057125 C280.39931141 218.50608542 279.3881099 218.51159958 278.34626591 218.51728085 C274.97232139 218.53082991 271.59911945 218.51600302 268.22518921 218.50120544 C265.77609993 218.50509992 263.32701292 218.51074154 260.87793124 218.51797634 C255.56062451 218.5296501 250.24353564 218.52894247 244.92624474 218.51719666 C237.01927091 218.4997783 229.11242775 218.50532658 221.20544706 218.51536357 C207.08254943 218.53254007 192.95972951 218.5270247 178.83683349 218.51200638 C166.47883791 218.49894963 154.12086927 218.4937596 141.76286697 218.49632454 C140.5328049 218.49656516 140.5328049 218.49656516 139.27789309 218.49681065 C135.94901896 218.49747424 132.62014483 218.49817666 129.29127072 218.49893599 C98.0723026 218.50595806 66.85338192 218.49047485 35.63442587 218.46431253 C7.90014923 218.44119361 -19.83407527 218.4358111 -47.56835938 218.44604492 C-54.67155772 218.44864695 -61.77475607 218.45123197 -68.87795448 218.45364285 C-69.75245199 218.45394029 -70.6269495 218.45423774 -71.52794693 218.4545442 C-94.70664495 218.46215892 -117.8853387 218.45574717 -141.06403482 218.44494683 C-143.55801906 218.44379903 -146.05200331 218.44265585 -148.54598756 218.44152 C-150.20041033 218.44076475 -151.85483309 218.43999911 -153.50925585 218.43922299 C-165.86066342 218.43356497 -178.2120575 218.43489438 -190.56346512 218.43945122 C-204.60627077 218.44455845 -218.64902591 218.43870846 -232.69181897 218.41855692 C-240.55069017 218.40756946 -248.4094621 218.40477845 -256.26833632 218.41384545 C-262.13404951 218.41967747 -267.99966797 218.40983948 -273.8653646 218.3938458 C-276.24000882 218.38979425 -278.61466812 218.39081297 -280.98930676 218.39736467 C-284.21380204 218.40550097 -287.43773593 218.39521885 -290.66219521 218.38031673 C-291.58678461 218.38705439 -292.51137401 218.39379204 -293.46398127 218.40073386 C-304.4612214 218.30226622 -311.97281081 214.60897606 -319.9140625 207.21875 C-327.94551894 198.87970586 -329.46192805 189.65401762 -329.3515625 178.36914062 C-329.3181621 177.0169158 -329.28430261 175.66470224 -329.25 174.3125 C-329.22988145 172.91734367 -329.21164025 171.52215896 -329.1953125 170.12695312 C-329.14858041 166.75055933 -329.08307355 163.37566194 -329 160 C-315.58759312 152.85634882 -302.06483958 145.95379841 -288.46777344 139.16870117 C-285.26607832 137.57052574 -282.06653844 135.96809645 -278.8671875 134.36523438 C-276.7501281 133.30703536 -274.6329445 132.24908475 -272.515625 131.19140625 C-271.14256195 130.50335655 -271.14256195 130.50335655 -269.74176025 129.80140686 C-263.87603893 126.87840239 -257.97875711 124.03024557 -252.06168747 121.2128973 C-240.47392486 115.6953339 -228.96159277 110.0434496 -217.49240112 104.28378296 C-214.45241338 102.75721876 -211.41105094 101.23342203 -208.36938477 99.71020508 C-201.91176812 96.4757719 -195.45575254 93.2381519 -189 90 C-181.49973414 86.23792889 -173.99875705 82.4772893 -166.49606323 78.72006226 C-163.54738428 77.24256 -160.59995125 75.7625951 -157.65258789 74.2824707 C-147.29582192 69.09021685 -136.8922706 64.01314412 -126.43060303 59.03565979 C-117.80607882 54.92543034 -109.25111424 50.68477587 -100.7147522 46.3949585 C-98.07803811 45.06999478 -95.43992476 43.74785053 -92.80151367 42.42626953 C-87.19984694 39.61982773 -81.59978802 36.81018818 -76 34 C-68.60543857 30.28912576 -61.21011245 26.57978898 -53.8125 22.875 C-52.92932098 22.43265015 -52.04614197 21.99030029 -51.13619995 21.5345459 C-38.47602699 15.19735724 -25.79308987 8.9159044 -12.95507812 2.94433594 C-11.17970978 2.08680287 -9.4530126 1.1302822 -7.734375 0.1640625 C-4.48010521 -1.22132664 -3.35473902 -0.89543808 0 0 Z " fill="#FEFEFE" transform="translate(660,810)"/>
<path d="M0 0 C4.69885043 0.00863638 9.397676 -0.00042202 14.09652514 -0.00706416 C22.30381795 -0.01629473 30.51104926 -0.01455747 38.71834124 -0.00533163 C50.92310205 0.00834971 63.12781624 0.00467611 75.33258054 -0.00229023 C97.13628639 -0.01417974 118.93996321 -0.00915949 140.74366744 0.00298804 C159.82062034 0.01354354 178.89756336 0.01806107 197.97451915 0.01669253 C199.24221316 0.0166085 200.50990717 0.01652447 201.81601616 0.01643789 C206.96252091 0.01608562 212.10902566 0.0157016 217.25553041 0.01527231 C253.14409514 0.01232504 289.03265553 0.01465079 324.92121733 0.0291828 C325.59660848 0.02945599 326.27199962 0.02972918 326.96785716 0.03001064 C337.93389326 0.03446365 348.89992924 0.03917873 359.86596522 0.04390953 C403.36882351 0.06266028 446.87166443 0.06907098 490.37452639 0.06352747 C493.12486197 0.06318049 495.87519754 0.06283487 498.62553311 0.06248918 C499.6455691 0.06236078 499.6455691 0.06236078 500.68621188 0.06222978 C508.21799246 0.06128357 515.74977305 0.06037185 523.28155364 0.05950201 C524.29479635 0.05938364 524.29479635 0.05938364 525.32850861 0.05926287 C561.82675379 0.0550369 598.32499679 0.06035224 634.82324119 0.06901331 C638.67798764 0.06992031 642.5327341 0.07082596 646.38748056 0.07172854 C648.94442355 0.07232964 651.50136655 0.07293826 654.05830955 0.07355445 C671.8628908 0.07777108 689.66746889 0.07835607 707.47205048 0.07644895 C730.41447149 0.07400364 753.35687558 0.07809716 776.29929197 0.09365895 C788.42375267 0.10169401 800.54818519 0.10432194 812.67264756 0.0990166 C820.78028825 0.09603062 828.88790412 0.10037007 836.99553889 0.11056517 C841.60854915 0.1161687 846.22150214 0.11873265 850.83451277 0.1123986 C868.52354296 0.09013285 886.05679664 0.0806347 903.63258303 2.3792013 C904.81924026 2.53347722 906.00589749 2.68775313 907.22851403 2.84670407 C909.97874058 3.22339042 912.70974638 3.65704507 915.44508303 4.1292013 C916.43459964 4.29911585 917.42411624 4.4690304 918.44361819 4.64409388 C973.73215353 14.50800174 1027.58545196 39.70331883 1068.63258303 78.3792013 C1069.85827651 79.42495254 1071.08746658 80.4666191 1072.32008303 81.5042013 C1082.68973819 90.5671113 1092.15596039 100.53804708 1100.63258303 111.3792013 C1101.55952951 112.50776032 1102.48939643 113.63392481 1103.42164553 114.75810755 C1153.19700112 175.11998228 1171.20107533 249.04674378 1171.0179857 325.80178293 C1171.01025137 330.47337934 1171.02020354 335.14494784 1171.0277157 339.81654007 C1171.0384658 347.97311336 1171.03827499 356.12962689 1171.03057421 364.2862028 C1171.01915381 376.41594535 1171.02506554 388.54563817 1171.03419914 400.67538046 C1171.04994269 422.34784685 1171.0486487 444.02028659 1171.0399624 465.69275547 C1171.0323987 484.65872506 1171.03045355 503.62468491 1171.03403033 522.59065569 C1171.03425949 523.85150584 1171.03448864 525.11235599 1171.03472474 526.41141372 C1171.03565884 531.53033815 1171.03661405 536.64926257 1171.03760403 541.76818698 C1171.04442491 577.46312455 1171.04565186 613.15805887 1171.03441371 648.85299528 C1171.03420296 649.52465674 1171.03399221 650.19631819 1171.03377508 650.88833301 C1171.03034087 661.7933968 1171.02668219 672.69846051 1171.02300456 683.60352421 C1171.00843642 726.84785104 1171.00911423 770.09214999 1171.02369632 813.33647669 C1171.02736034 824.23743472 1171.03099367 835.13839276 1171.03441371 846.03935088 C1171.03473072 847.04637402 1171.03473072 847.04637402 1171.03505415 848.07374107 C1171.04640307 884.37403555 1171.04388031 920.67432859 1171.03685952 956.97462399 C1171.03589745 962.08360355 1171.03495893 967.19258311 1171.03403033 972.30156268 C1171.03367448 974.18833657 1171.03367448 974.18833657 1171.03331145 976.1132271 C1171.02990687 995.06246019 1171.03387518 1014.01168244 1171.04146899 1032.96091402 C1171.05006513 1054.51803632 1171.04786317 1076.07512795 1171.03162676 1097.63224645 C1171.02285097 1109.67950847 1171.02219481 1121.72670399 1171.03356528 1133.77396421 C1171.04033536 1141.84028728 1171.03602897 1149.90655749 1171.02305097 1157.97287278 C1171.01597525 1162.55570792 1171.01334583 1167.13841184 1171.02426892 1171.72124244 C1171.19709632 1250.15291757 1150.75942331 1326.64411248 1097.63258303 1386.3792013 C1096.42401871 1387.77483464 1095.2156569 1389.1706434 1094.00758303 1390.5667013 C1092.88482594 1391.83951663 1091.75969987 1393.11024504 1090.63258303 1394.3792013 C1089.92488772 1395.17970911 1089.21719241 1395.98021693 1088.48805178 1396.80498255 C1081.31537981 1404.85743711 1073.89776722 1412.44627685 1065.63258303 1419.3792013 C1065.09133792 1419.83424036 1064.5500928 1420.28927943 1063.99244632 1420.75810755 C1047.8467693 1434.2726052 1030.89363578 1445.90180152 1012.63258303 1456.3792013 C1011.97048831 1456.76060267 1011.30839358 1457.14200404 1010.62623538 1457.53496302 C965.29928111 1483.38670212 912.37662689 1494.58678354 860.58431281 1494.50783575 C859.02811223 1494.50918612 857.47191198 1494.5109721 855.91571234 1494.51314799 C851.66928011 1494.51783631 847.42286955 1494.51638999 843.17643631 1494.51387022 C838.5450533 1494.51222705 833.91367472 1494.51638632 829.28229315 1494.51977939 C821.17473676 1494.52491861 813.06718634 1494.52635317 804.95962847 1494.52532328 C792.90275086 1494.52379548 780.84587983 1494.52796648 768.7890035 1494.53319791 C745.99922977 1494.54286026 723.2094583 1494.54568173 700.41968276 1494.54625496 C682.81682545 1494.54671483 665.21396903 1494.54877485 647.61111201 1494.55195559 C642.54076405 1494.55285316 637.47041608 1494.55374297 632.40006812 1494.55463047 C630.50920883 1494.55496204 630.50920883 1494.55496204 628.58015037 1494.55530031 C593.13029741 1494.5614531 557.68044468 1494.56540692 522.23059119 1494.56495703 C520.88101071 1494.56494125 519.53143022 1494.56492552 518.18184974 1494.56490982 C512.0890675 1494.56483644 505.99628526 1494.56474827 499.90350302 1494.56465594 C497.18676732 1494.56461481 494.47003162 1494.56457467 491.75329593 1494.56453462 C490.39352298 1494.56451423 489.03375004 1494.56449321 487.67397709 1494.56447157 C444.69085589 1494.56379155 401.70774294 1494.5711058 358.72462405 1494.58501185 C347.89643836 1494.58851314 337.06825266 1494.59198272 326.2400669 1494.59527624 C325.2398367 1494.59558056 325.2398367 1494.59558056 324.21939984 1494.59589101 C288.17224305 1494.60679156 252.12508572 1494.60875279 216.07792742 1494.60804863 C211.00475026 1494.607974 205.93157311 1494.60792529 200.85839595 1494.60789431 C199.60929119 1494.60788266 198.36018644 1494.607871 197.07323002 1494.60785899 C176.9983674 1494.60782826 156.92351176 1494.61420586 136.84865121 1494.62282657 C116.6617895 1494.6313159 96.47493797 1494.63228299 76.28807547 1494.62571725 C64.30670895 1494.62203013 52.32537342 1494.62382888 40.34401021 1494.63365959 C32.32622538 1494.63968043 24.30846286 1494.63834086 16.29067904 1494.6311891 C11.73205584 1494.62732528 7.17349237 1494.62648031 2.61487349 1494.63464645 C-20.64799105 1494.67362496 -43.92160399 1494.53784493 -66.92991697 1490.6292013 C-67.94835691 1490.45928675 -68.96679685 1490.2893722 -70.01609861 1490.11430872 C-120.51173224 1481.33364239 -168.60075186 1459.74863715 -208.36741697 1427.3792013 C-208.88143064 1426.96138392 -209.39544431 1426.54356654 -209.92503415 1426.11308802 C-228.12199176 1411.23939308 -244.85825776 1394.9253228 -259.03343259 1376.14580286 C-259.91775418 1374.97469177 -260.80703685 1373.80730925 -261.70140134 1372.64384974 C-291.87749128 1333.37088013 -311.21726675 1287.02632412 -319.61741697 1238.3167013 C-319.76847898 1237.45778284 -319.91954099 1236.59886439 -320.07518064 1235.7139181 C-323.65464719 1213.53253116 -323.65975807 1191.24046024 -323.62435207 1168.84515327 C-323.61922415 1164.17984446 -323.62581983 1159.51454854 -323.63083874 1154.84924162 C-323.63802545 1146.69303245 -323.63786569 1138.5368498 -323.63274442 1130.38063944 C-323.6251495 1118.25164063 -323.62906243 1106.122664 -323.63516103 1093.99366532 C-323.64567112 1072.32569574 -323.64478827 1050.65773798 -323.63900321 1028.98976729 C-323.63396556 1010.02738376 -323.63266174 991.06500455 -323.6350485 972.10262049 C-323.63520127 970.84319111 -323.63535404 969.58376173 -323.63551144 968.28616782 C-323.63613415 963.17331064 -323.63677095 958.06045347 -323.63743096 952.94759629 C-323.64198005 917.28231582 -323.642792 881.6170368 -323.63530408 845.95175684 C-323.63516358 845.28027431 -323.63502309 844.60879177 -323.63487833 843.91696128 C-323.63258871 833.01403966 -323.63014966 822.11111807 -323.62769798 811.20819649 C-323.61798608 767.97189967 -323.61843686 724.73561525 -323.62815915 681.49931849 C-323.63060174 670.60176093 -323.63302392 659.70420336 -323.63530408 648.80664576 C-323.63544498 648.1355501 -323.63558587 647.46445445 -323.63573104 646.77302256 C-323.6432934 610.50397299 -323.64161656 574.23492406 -323.63693463 537.96587408 C-323.63629322 532.86251009 -323.63566754 527.7591461 -323.6350485 522.65578211 C-323.63489034 521.39926911 -323.63473219 520.14275611 -323.63456924 518.84816696 C-323.63229745 499.90100056 -323.63494896 480.95383896 -323.6400076 462.00667323 C-323.64573283 440.45580366 -323.64428215 418.90494773 -323.63344612 397.35407985 C-323.62758622 385.30338293 -323.62717185 373.25271556 -323.63473846 361.20201942 C-323.63924046 353.14081967 -323.63640112 345.07964349 -323.62772893 337.01844721 C-323.62299625 332.43351229 -323.62129231 327.84863585 -323.62854089 323.26370288 C-323.66123302 300.9649953 -323.52717397 278.73498884 -319.67991697 256.6917013 C-319.51403074 255.72587122 -319.3481445 254.76004115 -319.17723142 253.76494349 C-310.07090677 203.13039531 -289.07123003 156.82809818 -257.36741697 116.3792013 C-256.21499509 114.90580286 -256.21499509 114.90580286 -255.03929197 113.4026388 C-242.42683219 97.65974837 -228.21878266 82.85658152 -212.36741697 70.3792013 C-211.23655418 69.44928387 -210.10775606 68.51685168 -208.98069822 67.5823263 C-173.0103213 37.932514 -129.74541545 17.61490227 -84.36741697 7.3792013 C-83.51728025 7.18632532 -82.66714353 6.99344935 -81.79124509 6.79472865 C-54.68930671 0.80283903 -27.61511984 -0.07077738 0 0 Z M-103.36741697 18.3792013 C-104.0378906 18.59125208 -104.70836423 18.80330286 -105.39915525 19.02177943 C-140.10807163 30.18327401 -172.78117944 47.81786585 -201.36741697 70.3792013 C-202.26073728 71.0804513 -203.15405759 71.7817013 -204.07444822 72.5042013 C-220.57168641 85.72087281 -236.39550662 100.67757351 -249.36741697 117.3792013 C-250.22088169 118.43291098 -251.07645586 119.48491461 -251.93382322 120.5354513 C-280.04886838 155.22566701 -300.56682261 196.83215661 -310.36741697 240.3792013 C-310.59413083 241.38112513 -310.8208447 242.38304896 -311.05442868 243.41533411 C-317.57611549 272.93748811 -318.82586437 302.32889696 -318.75281963 332.4224975 C-318.74507612 337.02064698 -318.75504095 341.61876834 -318.76254963 346.21691359 C-318.77329333 354.24304042 -318.77311297 362.26910652 -318.76540815 370.295236 C-318.75398168 382.23109769 -318.75990257 394.16690888 -318.76903307 406.10277031 C-318.78477217 427.4298405 -318.78348439 448.75688361 -318.77479633 470.08395634 C-318.76723089 488.74834305 -318.76528828 507.41271987 -318.76886426 526.0771078 C-318.76909342 527.3181901 -318.76932257 528.55927241 -318.76955867 529.83796327 C-318.77049278 534.87671664 -318.77144799 539.91547 -318.77243796 544.95422336 C-318.77925832 580.08794439 -318.78048703 615.22166219 -318.76924764 650.35538233 C-318.76903689 651.01640947 -318.76882614 651.67743661 -318.76860901 652.35849487 C-318.76517485 663.09070527 -318.76151615 673.82291559 -318.75783849 684.55512591 C-318.74327136 727.11075167 -318.74394752 769.6663491 -318.75853025 812.22197474 C-318.76219432 822.94898989 -318.76582768 833.67600504 -318.76924764 844.40302027 C-318.76945898 845.06367166 -318.76967033 845.72432305 -318.76988808 846.40499418 C-318.78123939 882.13452271 -318.77871327 917.86404947 -318.77169346 953.5935787 C-318.77073139 958.6228174 -318.76979287 963.6520561 -318.76886426 968.68129481 C-318.76862703 969.91949862 -318.7683898 971.15770242 -318.76814538 972.43342756 C-318.764742 991.07987658 -318.76870688 1009.7263146 -318.77630292 1028.37276209 C-318.78490265 1049.58797967 -318.78268955 1070.80316609 -318.76646069 1092.01837982 C-318.75769072 1103.8719315 -318.75702019 1115.7254156 -318.76839921 1127.57896544 C-318.77517645 1135.51868401 -318.77085029 1143.45834893 -318.75788491 1151.39805961 C-318.75081886 1155.90692651 -318.74815871 1160.41566019 -318.75910285 1164.92452241 C-318.83835209 1200.20976877 -316.96176331 1235.46569863 -306.36741697 1269.3792013 C-306.12152829 1270.17970911 -305.87563962 1270.98021693 -305.62229978 1271.80498255 C-298.98127029 1293.23625963 -290.41884221 1313.84330778 -279.36741697 1333.3792013 C-278.80522458 1334.37355189 -278.80522458 1334.37355189 -278.23167478 1335.38799036 C-267.64587721 1353.91547191 -255.15092302 1371.29504094 -240.62913572 1386.9338888 C-238.67692817 1389.0445657 -236.79435419 1391.19147687 -234.92991697 1393.3792013 C-228.03210756 1401.30192107 -220.42793321 1408.65100179 -212.36741697 1415.3792013 C-211.86774411 1415.80862025 -211.36807126 1416.23803919 -210.85325681 1416.68047083 C-165.31122527 1455.75965856 -109.61566612 1479.08865993 -50.49241697 1487.0667013 C-49.61472654 1487.18618128 -48.73703611 1487.30566126 -47.832749 1487.42876185 C-34.42816861 1489.13743136 -21.0048849 1489.52869772 -7.50655519 1489.50783575 C-5.97081974 1489.5091862 -4.43508463 1489.51097222 -2.89935012 1489.51314799 C1.29025999 1489.51783525 5.47984813 1489.51639034 9.66945927 1489.51387022 C14.23924607 1489.51222677 18.80902837 1489.51638655 23.3788137 1489.51977939 C31.37822153 1489.52491816 39.37762332 1489.52635324 47.37703265 1489.52532328 C59.27309524 1489.52379536 71.16915116 1489.52796673 83.06521245 1489.53319791 C105.55112867 1489.54285985 128.03704261 1489.54568172 150.52296067 1489.54625496 C167.89126416 1489.54671484 185.25956677 1489.54877494 202.62786998 1489.55195559 C207.63081415 1489.55285316 212.63375832 1489.55374297 217.63670249 1489.55463047 C218.88052081 1489.55485151 220.12433912 1489.55507256 221.4058489 1489.55530031 C256.38415176 1489.56145303 291.36245431 1489.56540103 326.34075774 1489.56495703 C327.65904809 1489.56494145 328.97733845 1489.56492587 330.335577 1489.56490982 C336.34720278 1489.56483505 342.35882856 1489.56474827 348.37045434 1489.56465594 C351.05099822 1489.56461482 353.73154211 1489.56457467 356.41208599 1489.56453462 C357.75374426 1489.56451423 359.09540253 1489.56449321 360.4370608 1489.56447157 C402.84720914 1489.56379156 445.25734914 1489.57110572 487.66749514 1489.58501185 C534.58354201 1489.60038718 581.49958445 1489.60897745 628.41563411 1489.60804863 C633.42140747 1489.607974 638.42718084 1489.60792529 643.4329542 1489.60789431 C645.28171463 1489.60787683 645.28171463 1489.60787683 647.16782375 1489.60785899 C666.97489447 1489.60782826 686.78195811 1489.61420553 706.58902673 1489.62282657 C726.50703869 1489.6313164 746.42504034 1489.6322826 766.34305311 1489.62571725 C778.16445126 1489.62203046 789.98581801 1489.62382787 801.80721282 1489.63365959 C809.71836723 1489.63968129 817.62949903 1489.63833991 825.54065243 1489.6311891 C830.03837341 1489.627326 834.53603388 1489.62647818 839.03375048 1489.63464645 C862.69963026 1489.67483674 886.19707508 1489.18423413 909.63258303 1485.5042013 C910.76591067 1485.3284054 911.89923831 1485.1526095 913.06690921 1484.97148646 C968.27849843 1476.1694676 1022.25680478 1449.65175811 1063.19117678 1411.6370138 C1065.27946726 1409.70576277 1067.40349838 1407.8460207 1069.57008303 1406.0042013 C1077.92133862 1398.71396589 1085.55308086 1390.81463057 1092.43727053 1382.1292013 C1094.68412925 1379.31463095 1097.02839092 1376.60431115 1099.38258303 1373.8792013 C1123.21068076 1345.30771865 1140.4673173 1310.72559502 1151.63258303 1275.3792013 C1151.93809085 1274.44463099 1152.24359866 1273.51006068 1152.55836428 1272.54717005 C1156.61990803 1259.82936318 1159.46951776 1246.95694837 1161.75758303 1233.8167013 C1161.91613772 1232.93973597 1162.07469241 1232.06277064 1162.23805178 1231.1592306 C1166.00017227 1208.62800165 1165.92599517 1185.87131458 1165.88951814 1163.10721835 C1165.884385 1158.49818024 1165.8909879 1153.88915509 1165.89600481 1149.28011889 C1165.90318779 1141.22425854 1165.9030341 1133.16842505 1165.89791049 1125.1125635 C1165.89031212 1113.13279774 1165.89423026 1101.15305443 1165.9003271 1089.1732888 C1165.91083443 1067.7715698 1165.90995547 1046.36986278 1165.90416928 1024.96814265 C1165.89913082 1006.23934226 1165.89782819 987.51054625 1165.90021456 968.78174532 C1165.90036734 967.53763449 1165.90052011 966.29352367 1165.9006775 965.01171251 C1165.90130022 959.96100307 1165.90193702 954.91029363 1165.90259703 949.8595842 C1165.90714574 914.63048594 1165.90795889 879.40138902 1165.90047015 844.17229117 C1165.90032965 843.50909447 1165.90018915 842.84589778 1165.9000444 842.16260422 C1165.8977548 831.3943372 1165.89531574 820.62607022 1165.89286405 809.85780323 C1165.88315163 767.15342456 1165.88360352 724.44905843 1165.89332522 681.74467982 C1165.89576782 670.98050918 1165.89819001 660.21633855 1165.90047015 649.45216788 C1165.90061105 648.78928248 1165.90075194 648.12639709 1165.90089711 647.44342426 C1165.90845957 611.61756312 1165.9067826 575.7917027 1165.90210069 539.96584124 C1165.90145929 534.92484133 1165.90083361 529.88384142 1165.90021456 524.84284151 C1165.90005641 523.60168967 1165.89989826 522.36053782 1165.89973531 521.08177532 C1165.89746366 502.3674993 1165.90011475 483.65322815 1165.90517367 464.93895281 C1165.9108991 443.65344149 1165.90944774 422.36794397 1165.89861218 401.08243436 C1165.89275275 389.18059178 1165.89233725 377.27877912 1165.89990453 365.37693734 C1165.90440707 357.41499513 1165.90156623 349.45307679 1165.89289499 341.4911381 C1165.88816307 336.96291201 1165.88645677 332.43474513 1165.89370696 327.90652102 C1165.92083409 309.63875254 1165.75014164 291.55406001 1163.63258303 273.3792013 C1163.48934611 272.10460203 1163.34610919 270.83000275 1163.19853176 269.51677925 C1155.63302609 205.23366161 1124.326985 144.67987109 1079.63258303 98.3792013 C1078.73853762 97.4522848 1078.73853762 97.4522848 1077.82643069 96.50664271 C1070.14331639 88.58572245 1062.33217375 81.18809693 1053.63258303 74.3792013 C1052.52725339 73.46420223 1051.42453433 72.5460434 1050.32398928 71.62529505 C1026.7131452 52.02243465 998.57347627 35.9986389 969.71461428 25.5120138 C967.08974769 24.54723394 964.51297118 23.51653052 961.92555178 22.4573263 C946.95486634 16.45903177 931.34228252 12.88297874 915.50758303 10.0667013 C914.82993899 9.94377711 914.15229495 9.82085291 913.45411624 9.69420374 C889.86316733 5.46295424 866.35843622 5.08277512 842.4676446 5.11606483 C837.83865667 5.12027816 833.20968395 5.1128091 828.58069987 5.10691232 C820.48653553 5.09819096 812.3923965 5.09682366 804.29822863 5.1004156 C792.2611491 5.10574305 780.22409389 5.0996068 768.187017 5.09133266 C745.43319169 5.07612098 722.67937753 5.0743847 699.9255482 5.07685569 C682.34956498 5.07869095 664.77358541 5.07692386 647.19760264 5.07263125 C644.66919502 5.07202884 642.14078741 5.07142764 639.61237979 5.07082765 C635.80192935 5.06992035 631.99147891 5.06901169 628.18102847 5.06809529 C592.76903608 5.05966993 557.35704474 5.05530841 521.94505156 5.05950201 C520.94486145 5.0596191 520.94486145 5.0596191 519.92446549 5.05973855 C512.48992729 5.06061126 505.05538911 5.06154053 497.62085093 5.06248918 C496.94969153 5.06257469 496.27853213 5.0626602 495.58703457 5.0627483 C491.51573308 5.06326709 491.51573308 5.06326709 487.4444316 5.06379053 C444.52854327 5.06932452 401.61267646 5.06178674 358.69679202 5.04301966 C347.88376786 5.03829694 337.07074369 5.03361621 326.25771941 5.0291828 C325.25884157 5.02877282 325.25884157 5.02877282 324.23978438 5.02835455 C288.22994372 5.01366731 252.22010261 5.01255105 216.21025939 5.01559515 C211.14159752 5.01599047 206.07293566 5.01635202 201.00427378 5.01669253 C199.75631772 5.01678326 198.50836166 5.01687399 197.22258875 5.01696747 C178.41966205 5.01813129 159.61674845 5.01150152 140.81382502 5.00088061 C119.41754117 4.98880686 98.02128609 4.98729464 76.62500179 4.99967077 C64.66665008 5.00627905 52.70836728 5.00471543 40.75002114 4.99108226 C32.74268275 4.98279417 24.73539558 4.98559147 16.72806129 4.99705753 C12.17877144 5.00327106 7.62961529 5.00502756 3.08033354 4.99319419 C-32.92632889 4.90608268 -68.82094001 7.34156462 -103.36741697 18.3792013 Z " fill="#E2E2E2" transform="translate(324.3674169657752,0.6207986986264586)"/>
</svg>
