<?xml version="1.0" encoding="UTF-8"?>
<svg version="1.1" xmlns="http://www.w3.org/2000/svg" width="512" height="512">
<path d="M0 0 C168.96 0 337.92 0 512 0 C512 168.96 512 337.92 512 512 C343.04 512 174.08 512 0 512 C0 343.04 0 174.08 0 0 Z " fill="#08223D" transform="translate(0,0)"/>
<path d="M0 0 C6.67233632 2.86172438 11.51057682 9.1878502 16.125 14.625 C19.69965616 18.80382339 23.59557904 22.6333851 27.5 26.5 C31.93037862 30.88756269 36.24307058 35.27786718 40.265625 40.046875 C43.0199538 43.14859663 46.00254401 46.02265759 48.95410156 48.93457031 C52.17214646 52.12607463 55.16747253 55.42963755 58.09765625 58.8828125 C61.06006315 62.17978281 64.24621384 65.25381897 67.4453125 68.3203125 C68.66651672 69.51073006 69.83793876 70.75178232 71 72 C71 72.66 71 73.32 71 74 C55.16 74 39.32 74 23 74 C23 157.49 23 240.98 23 327 C8.48 327 -6.04 327 -21 327 C-21 243.51 -21 160.02 -21 74 C-36.84 74 -52.68 74 -69 74 C-67.22143058 70.44286117 -66.08476818 68.88610569 -63.3125 66.25 C-60.68215367 63.69010938 -58.1822473 61.11472618 -55.8125 58.3125 C-52.55569917 54.51664248 -49.05386979 51.01378101 -45.5 47.5 C-42.07153786 44.109952 -38.67739172 40.74805891 -35.5625 37.0625 C-31.68733484 32.48805692 -27.37773454 28.35303081 -23.12011719 24.13964844 C-19.5128371 20.5555043 -16.08081089 16.90439355 -12.796875 13.01953125 C-8.75263247 8.47415431 -4.33569846 4.26513555 0 0 Z " fill="#FDC401" transform="translate(160,93)"/>
<path d="M0 0 C3.2239517 1.41539343 5.35666792 3.11414928 7.8125 5.625 C8.75029297 6.57246094 8.75029297 6.57246094 9.70703125 7.5390625 C11.61065598 9.58213504 13.43930988 11.65892622 15.26171875 13.7734375 C18.98431351 18.05071529 22.95358268 22.03110026 27 26 C31.61825953 30.52978713 36.0319728 35.12959484 40.25390625 40.03125 C43.18628161 43.33755242 46.34581141 46.40721467 49.5 49.5 C54.01055966 53.96210638 58.41817795 58.42863767 62.50390625 63.2890625 C64.75666211 65.86532117 67.22887343 68.20530895 69.71484375 70.5546875 C71 72 71 72 71 74 C55.16 74 39.32 74 23 74 C23 157.49 23 240.98 23 327 C8.48 327 -6.04 327 -21 327 C-21 243.51 -21 160.02 -21 74 C-36.84 74 -52.68 74 -69 74 C-66.96855658 69.93711315 -65.04893481 67.87483361 -61.8125 64.75 C-58.62780138 61.63934022 -55.50003334 58.52869186 -52.625 55.125 C-49.43870567 51.38456753 -45.99119746 47.95196502 -42.5 44.5 C-39.07154618 41.10994409 -35.67739237 37.74805967 -32.5625 34.0625 C-28.68933566 29.49041878 -24.3822069 25.35736961 -20.12670898 21.14624023 C-16.45228407 17.49544823 -12.94531106 13.77585348 -9.59765625 9.8203125 C-6.57565288 6.37714974 -3.27604329 3.19946046 0 0 Z " fill="#4ACF27" transform="translate(350,93)"/>
<path d="M0 0 C4.08207345 1.61724151 6.80398063 4.54384801 9.8125 7.625 C10.30814453 8.12128906 10.80378906 8.61757812 11.31445312 9.12890625 C14.11674106 11.96365312 16.78441518 14.87902711 19.38671875 17.8984375 C23.06240148 22.13871401 26.99552328 26.07223739 31 30 C35.60802955 34.51975312 40.01017797 39.10932227 44.22265625 44 C47.32386585 47.48971278 50.66834132 50.7321662 54 54 C67.73684211 67.47368421 67.73684211 67.47368421 71 74 C55.82 74 40.64 74 25 74 C25 123.17 25 172.34 25 223 C8.5 223 -8 223 -25 223 C-25 173.83 -25 124.66 -25 74 C-39.52 74 -54.04 74 -69 74 C-67.05432417 70.10864835 -65.39826579 68.21762774 -62.3125 65.25 C-59.33324408 62.33431284 -56.43613153 59.43763435 -53.75 56.25 C-49.83916666 51.66873808 -45.53856413 47.48512068 -41.23730469 43.27441406 C-38.24914272 40.32992394 -35.3893507 37.34010598 -32.65625 34.15625 C-27.76088306 28.48505481 -22.36328709 23.31805348 -17.02734375 18.06640625 C-12.66920302 13.75023798 -8.46573654 9.38177316 -4.49023438 4.70898438 C-3.05633443 3.06460371 -1.5608038 1.52347515 0 0 Z " fill="#2895F8" transform="translate(256,197)"/>
<path d="M0 0 C3.2239517 1.41539343 5.35666792 3.11414928 7.8125 5.625 C8.75029297 6.57246094 8.75029297 6.57246094 9.70703125 7.5390625 C11.61065598 9.58213504 13.43930988 11.65892622 15.26171875 13.7734375 C18.98431351 18.05071529 22.95358268 22.03110026 27 26 C31.61825953 30.52978713 36.0319728 35.12959484 40.25390625 40.03125 C43.18628161 43.33755242 46.34581141 46.40721467 49.5 49.5 C54.01055966 53.96210638 58.41817795 58.42863767 62.50390625 63.2890625 C64.75666211 65.86532117 67.22887343 68.20530895 69.71484375 70.5546875 C71 72 71 72 71 74 C55.16 74 39.32 74 23 74 C23 157.49 23 240.98 23 327 C8.48 327 -6.04 327 -21 327 C-21 243.51 -21 160.02 -21 74 C-36.84 74 -52.68 74 -69 74 C-66.96855658 69.93711315 -65.04893481 67.87483361 -61.8125 64.75 C-58.62780138 61.63934022 -55.50003334 58.52869186 -52.625 55.125 C-49.43870567 51.38456753 -45.99119746 47.95196502 -42.5 44.5 C-39.07154618 41.10994409 -35.67739237 37.74805967 -32.5625 34.0625 C-28.68933566 29.49041878 -24.3822069 25.35736961 -20.12670898 21.14624023 C-16.45228407 17.49544823 -12.94531106 13.77585348 -9.59765625 9.8203125 C-6.57565288 6.37714974 -3.27604329 3.19946046 0 0 Z M-20 74 C-20 157.16 -20 240.32 -20 326 C-6.14 326 7.72 326 22 326 C22.1805923 298.23601811 22.32795834 270.47251178 22.41449738 242.70809174 C22.45574706 229.81657382 22.51198435 216.92544674 22.60351562 204.03417969 C22.68325706 192.79803726 22.7348668 181.56217789 22.75270796 170.32576036 C22.76313701 164.37607312 22.78764327 158.42719563 22.84584045 152.47776794 C22.90018776 146.8764675 22.91688316 141.27630942 22.90486145 135.67477036 C22.9070603 133.62044438 22.92294758 131.56607977 22.9536438 129.51198196 C23.49284564 118.85919495 23.49284564 118.85919495 20.19309998 109.0650177 C18.10093223 106.88660958 18.10093223 106.88660958 15.81572723 105.32041168 C14 104 14 104 13 101 C11.35 100.67 9.7 100.34 8 100 C7.67 99.01 7.34 98.02 7 97 C6.34 96.67 5.68 96.34 5 96 C4.896875 95.360625 4.79375 94.72125 4.6875 94.0625 C4.460625 93.381875 4.23375 92.70125 4 92 C1.60931266 90.89363605 1.60931266 90.89363605 -1 90 C-2.01868662 89.01904252 -3.02351983 88.02297922 -4 87 C-4.66 87 -5.32 87 -6 87 C-6.061875 86.4225 -6.12375 85.845 -6.1875 85.25 C-7.33384174 82.07551517 -9.25956842 80.87151425 -12 79 C-12.66 79 -13.32 79 -14 79 C-14 78.34 -14 77.68 -14 77 C-14.99 76.67 -15.98 76.34 -17 76 C-17.33 75.34 -17.66 74.68 -18 74 C-18.66 74 -19.32 74 -20 74 Z " fill="#49CD27" transform="translate(350,93)"/>
<path d="M0 0 C6.67233632 2.86172438 11.51057682 9.1878502 16.125 14.625 C19.69965616 18.80382339 23.59557904 22.6333851 27.5 26.5 C31.93037862 30.88756269 36.24307058 35.27786718 40.265625 40.046875 C43.0199538 43.14859663 46.00254401 46.02265759 48.95410156 48.93457031 C52.17214646 52.12607463 55.16747253 55.42963755 58.09765625 58.8828125 C61.06006315 62.17978281 64.24621384 65.25381897 67.4453125 68.3203125 C68.66651672 69.51073006 69.83793876 70.75178232 71 72 C71 72.66 71 73.32 71 74 C55.16 74 39.32 74 23 74 C23 157.49 23 240.98 23 327 C8.48 327 -6.04 327 -21 327 C-21 243.51 -21 160.02 -21 74 C-36.84 74 -52.68 74 -69 74 C-67.22143058 70.44286117 -66.08476818 68.88610569 -63.3125 66.25 C-60.68215367 63.69010938 -58.1822473 61.11472618 -55.8125 58.3125 C-52.55569917 54.51664248 -49.05386979 51.01378101 -45.5 47.5 C-42.07153786 44.109952 -38.67739172 40.74805891 -35.5625 37.0625 C-31.68733484 32.48805692 -27.37773454 28.35303081 -23.12011719 24.13964844 C-19.5128371 20.5555043 -16.08081089 16.90439355 -12.796875 13.01953125 C-8.75263247 8.47415431 -4.33569846 4.26513555 0 0 Z M-20 74 C-20 157.16 -20 240.32 -20 326 C-6.14 326 7.72 326 22 326 C22.11280513 298.05382986 22.20493654 270.10784365 22.25906086 242.16150379 C22.28485807 229.18595551 22.32003783 216.21055857 22.37719727 203.23510742 C22.42698548 191.92757989 22.45927997 180.62016194 22.47044247 169.31252784 C22.47696892 163.32347182 22.49233991 157.33472936 22.52865028 151.3457737 C22.56253706 145.71101501 22.57306761 140.07669965 22.56553841 134.44184875 C22.56691622 132.37178833 22.57689196 130.30171339 22.59602737 128.23174095 C22.62085085 125.40844762 22.61494423 122.58683504 22.60127258 119.76350403 C22.62311889 118.53051951 22.62311889 118.53051951 22.64540654 117.27262622 C22.58906956 112.97807405 22.35458949 111.44793927 19.58742046 107.952281 C17.27413252 105.79922975 17.27413252 105.79922975 15 106 C14.73517822 105.39945801 14.47035645 104.79891602 14.19750977 104.18017578 C12.95172405 101.91210922 11.82549501 100.74645445 9.83984375 99.1171875 C8.90241333 98.33251099 8.90241333 98.33251099 7.94604492 97.53198242 C7.2832251 96.98517822 6.62040527 96.43837402 5.9375 95.875 C0.32579383 91.15440298 -4.65759825 86.36832514 -9.36328125 80.73046875 C-9.90339844 80.15941406 -10.44351563 79.58835937 -11 79 C-11.66 79 -12.32 79 -13 79 C-13 78.34 -13 77.68 -13 77 C-15.31 76.01 -17.62 75.02 -20 74 Z " fill="#FBC202" transform="translate(160,93)"/>
<path d="M0 0 C0.33 0.66 0.66 1.32 1 2 C2.1446875 2.20882813 2.1446875 2.20882813 3.3125 2.421875 C6.43337793 3.09322665 7.680432 4.09878774 10 6.25 C10.69351563 6.88679688 11.38703125 7.52359375 12.1015625 8.1796875 C14.43637002 10.41841241 16.71273767 12.71273767 19 15 C24.56769733 20.19389432 30.23608065 25.09145695 36.3828125 29.58984375 C36.91648437 30.05519531 37.45015625 30.52054687 38 31 C38 31.66 38 32.32 38 33 C38.99 33 39.98 33 41 33 C42.70779973 34.62449243 44.37550757 36.29220027 46 38 C46.99 38.495 46.99 38.495 48 39 C48 74.64 48 110.28 48 147 C32.16 147 16.32 147 0 147 C0 98.49 0 49.98 0 0 Z " fill="#2896FA" transform="translate(232,272)"/>
<path d="M0 0 C0.495 0.99 0.495 0.99 1 2 C-14.18 2 -29.36 2 -45 2 C-45 51.17 -45 100.34 -45 151 C-61.5 151 -78 151 -95 151 C-95 101.83 -95 52.66 -95 2 C-94.67 2 -94.34 2 -94 2 C-94 50.84 -94 99.68 -94 150 C-78.16 150 -62.32 150 -46 150 C-46 114.36 -46 78.72 -46 42 C-47.32 41.34 -48.64 40.68 -50 40 C-50.99 39.34 -51.98 38.68 -53 38 C-53 37.34 -53 36.68 -53 36 C-53.99 36 -54.98 36 -56 36 C-57.70919861 34.37697947 -59.36942194 32.70199023 -61 31 C-63.88958476 28.61735994 -66.82508948 26.3026047 -69.76953125 23.98828125 C-70.50558594 23.33214844 -71.24164063 22.67601562 -72 22 C-72 21.34 -72 20.68 -72 20 C-72.556875 19.773125 -73.11375 19.54625 -73.6875 19.3125 C-76.64562023 17.6335669 -78.58983583 15.41016417 -81 13 C-86.53580927 8.20580938 -86.53580927 8.20580938 -93 5 C-93 3.68 -93 2.36 -93 1 C-46.965 0.505 -46.965 0.505 0 0 Z " fill="#1E7BD2" transform="translate(326,269)"/>
<path d="M0 0 C0.33 0 0.66 0 1 0 C1 83.16 1 166.32 1 252 C14.86 252 28.72 252 43 252 C43.05001053 224.2358209 43.0669512 196.47226747 43.02334595 168.70809174 C43.00416229 155.816677 42.99989741 142.92557976 43.03076172 130.03417969 C43.05762552 118.7978977 43.05648928 107.56202698 43.02174091 96.32576036 C43.00431925 90.37617232 43.00091157 84.42732102 43.03103638 78.47776794 C43.05895621 72.87630905 43.04940281 67.27615697 43.01126289 61.67477036 C43.00385205 59.62051037 43.01006432 57.56614844 43.03101921 55.51198196 C43.52854296 44.84083076 43.52854296 44.84083076 40.15234375 35.0650177 C38.03231698 32.88450263 38.03231698 32.88450263 35.71484375 31.32041168 C35.14894531 30.88467583 34.58304687 30.44893997 34 30 C34 29.01 34 28.02 34 27 C33.2575 26.9175 32.515 26.835 31.75 26.75 C28.41323787 25.83997396 27.09984303 24.72201875 25 22 C25 20.68 25 19.36 25 18 C24.278125 17.9175 23.55625 17.835 22.8125 17.75 C18.40218663 16.57391643 15.79715678 14.3618095 13.5 10.4375 C11.72961601 7.56062602 9.85653422 6.69847981 7 5 C7 4.01 7 3.02 7 2 C6.34 2 5.68 2 5 2 C5 1.34 5 0.68 5 0 C17.87 0 30.74 0 44 0 C44 83.49 44 166.98 44 253 C29.48 253 14.96 253 0 253 C0 169.51 0 86.02 0 0 Z " fill="#44A53D" transform="translate(329,167)"/>
<path d="M0 0 C0.33 0 0.66 0 1 0 C1 83.16 1 166.32 1 252 C14.86 252 28.72 252 43 252 C43.00485932 224.05368077 42.98500689 196.10773928 42.9197216 168.16150379 C42.89020697 155.1859955 42.87190822 142.21065129 42.87988281 129.23510742 C42.88680401 117.92747545 42.87281425 106.62009732 42.83356392 95.31252784 C42.81350927 89.32348424 42.80402802 83.33483949 42.81957626 77.3457737 C42.83387504 71.7108448 42.82025604 66.07667916 42.78504753 60.44184875 C42.77706645 58.37182667 42.7793624 56.30173604 42.79260826 54.23174095 C42.8091515 51.40808467 42.78896685 48.58700014 42.75949097 45.76350403 C42.77307707 44.94151435 42.78666317 44.11952468 42.80066097 43.27262622 C42.74988319 39.02142618 42.74988319 39.02142618 40.69058442 35.44652689 C39.19453234 34.21109699 37.59875216 33.09929541 36 32 C34.8640939 30.57200377 33.72828893 29.14392644 32.59375 27.71484375 C30.51945115 25.48293886 28.20541038 23.69792517 25.8125 21.8125 C20.61032384 17.67472574 16.33522328 13.18617722 11.99609375 8.1875 C10.19024705 5.94543362 10.19024705 5.94543362 8 5 C8 4.34 8 3.68 8 3 C7.01 2.67 6.02 2.34 5 2 C5 1.34 5 0.68 5 0 C17.87 0 30.74 0 44 0 C44 83.49 44 166.98 44 253 C29.48 253 14.96 253 0 253 C0 169.51 0 86.02 0 0 Z " fill="#C59D08" transform="translate(139,167)"/>
<path d="M0 0 C0.66 0.99 1.32 1.98 2 3 C1.54625 3.7425 1.0925 4.485 0.625 5.25 C-0.99254996 7.86680978 -0.99254996 7.86680978 -2 10.25 C-3 12 -3 12 -6 13 C-5.67 13.66 -5.34 14.32 -5 15 C14.305 15.495 14.305 15.495 34 16 C34 16.33 34 16.66 34 17 C18.16 17 2.32 17 -14 17 C-12.19587234 13.39174469 -10.95086368 11.75506823 -8.125 9.0625 C-5.17236073 6.19038726 -2.47750972 3.30334629 0 0 Z " fill="#CFA70C" transform="translate(105,150)"/>
<path d="M0 0 C1 3 1 3 0 6 C-0.66 6 -1.32 6 -2 6 C-2 6.66 -2 7.32 -2 8 C-3.75 10.125 -3.75 10.125 -6 12 C-7.32 12 -8.64 12 -10 12 C-10 12.99 -10 13.98 -10 15 C-11.65 15.66 -13.3 16.32 -15 17 C-10.60502098 10.67467725 -5.54949524 5.32751543 0 0 Z " fill="#45BD2B" transform="translate(306,139)"/>
<path d="M0 0 C2.1875 0.3125 2.1875 0.3125 4 1 C2.55549846 3.88900308 0.29968171 5.75640808 -2 8 C-2.66 8.66 -3.32 9.32 -4 10 C-4.66 10.144375 -5.32 10.28875 -6 10.4375 C-8.38640738 10.87458708 -8.38640738 10.87458708 -10 14 C-10.66 13.67 -11.32 13.34 -12 13 C-10.56354149 11.39490066 -9.12579294 9.79095576 -7.6875 8.1875 C-6.88699219 7.29417969 -6.08648437 6.40085938 -5.26171875 5.48046875 C-4.14216797 4.25263672 -4.14216797 4.25263672 -3 3 C-2.4534375 2.3915625 -1.906875 1.783125 -1.34375 1.15625 C-0.9003125 0.7746875 -0.456875 0.393125 0 0 Z " fill="#2690EE" transform="translate(236,218)"/>
<path d="M0 0 C2.64 0.66 5.28 1.32 8 2 C8.33 3.32 8.66 4.64 9 6 C10.32 6.33 11.64 6.66 13 7 C13 8.98 13 10.96 13 13 C8.10021587 9.04248205 3.99479086 4.87169618 0 0 Z " fill="#092A39" transform="translate(385,128)"/>
<path d="M0 0 C0.66 0.33 1.32 0.66 2 1 C0.75 3.9375 0.75 3.9375 -1 7 C-3.125 7.6875 -3.125 7.6875 -5 8 C-5.33 8.99 -5.66 9.98 -6 11 C-6.33 10.67 -6.66 10.34 -7 10 C-7.33 10.99 -7.66 11.98 -8 13 C-9.65 13.33 -11.3 13.66 -13 14 C-8.88380164 9.08064098 -4.59589638 4.47352044 0 0 Z " fill="#45BE29" transform="translate(332,112)"/>
<path d="M0 0 C3.7952131 1.49097658 5.61042731 3.75700849 8 7 C6.35 7.66 4.7 8.32 3 9 C3 8.34 3 7.68 3 7 C2.01 6.67 1.02 6.34 0 6 C0 5.01 0 4.02 0 3 C-0.66 2.67 -1.32 2.34 -2 2 C-1.34 1.34 -0.68 0.68 0 0 Z " fill="#46C02A" transform="translate(350,93)"/>
<path d="M0 0 C0.33 0.66 0.66 1.32 1 2 C0.50628906 2.54269531 0.01257813 3.08539063 -0.49609375 3.64453125 C-1.13675781 4.35996094 -1.77742187 5.07539062 -2.4375 5.8125 C-3.07558594 6.52019531 -3.71367187 7.22789063 -4.37109375 7.95703125 C-6.19086012 9.99896152 -6.19086012 9.99896152 -7 13 C-9.4375 14.75 -9.4375 14.75 -12 16 C-12.66 15.67 -13.32 15.34 -14 15 C-12.73542969 13.75283203 -12.73542969 13.75283203 -11.4453125 12.48046875 C-10.33840925 11.38294603 -9.2316457 10.28528241 -8.125 9.1875 C-7.56941406 8.64029297 -7.01382813 8.09308594 -6.44140625 7.52929688 C-5.90644531 6.99755859 -5.37148437 6.46582031 -4.8203125 5.91796875 C-4.32805176 5.43094482 -3.83579102 4.9439209 -3.32861328 4.44213867 C-1.77411511 2.82996499 -1.77411511 2.82996499 0 0 Z " fill="#DCAF0C" transform="translate(144,109)"/>
<path d="M0 0 C0.66 1.32 1.32 2.64 2 4 C1.195625 4.45375 0.39125 4.9075 -0.4375 5.375 C-3.08856572 6.74725665 -3.08856572 6.74725665 -4 9 C-3.34 9.33 -2.68 9.66 -2 10 C-4.31 10.33 -6.62 10.66 -9 11 C-8.06558465 9.72689688 -7.12732889 8.456612 -6.1875 7.1875 C-5.66542969 6.47980469 -5.14335937 5.77210938 -4.60546875 5.04296875 C-3.16871123 3.21468607 -1.68184237 1.60103312 0 0 Z " fill="#44BE2A" transform="translate(318,126)"/>
<path d="M0 0 C2.96175123 0.61277612 4.38058783 1.25372522 7 3 C7.1875 6.125 7.1875 6.125 7 9 C4.03595495 6.19195732 1.55500981 3.81684226 0 0 Z " fill="#162B38" transform="translate(192,123)"/>
<path d="M0 0 C1.32 0 2.64 0 4 0 C4 0.66 4 1.32 4 2 C5.65 2.33 7.3 2.66 9 3 C9 3.99 9 4.98 9 6 C9.66 6.33 10.32 6.66 11 7 C10.01 7.33 9.02 7.66 8 8 C7.236875 7.175 6.47375 6.35 5.6875 5.5 C3.24565858 2.65944803 3.24565858 2.65944803 0 3 C0 2.01 0 1.02 0 0 Z " fill="#1A2B35" transform="translate(159,91)"/>
<path d="M0 0 C0 2 0 4 0 6 C-0.66 6 -1.32 6 -2 6 C-2.33 6.99 -2.66 7.98 -3 9 C-4.65 9 -6.3 9 -8 9 C-7.04270084 7.87411986 -6.08412105 6.7493285 -5.125 5.625 C-4.59132813 4.99851563 -4.05765625 4.37203125 -3.5078125 3.7265625 C-2.38567993 2.44163349 -1.20628025 1.20628025 0 0 Z " fill="#47C22B" transform="translate(290,156)"/>
<path d="M0 0 C0.33 0.99 0.66 1.98 1 3 C1.66 3.33 2.32 3.66 3 4 C2.34 5.65 1.68 7.3 1 9 C-1.31 7.02 -3.62 5.04 -6 3 C-5.34 2.67 -4.68 2.34 -4 2 C-3.01 2.33 -2.02 2.66 -1 3 C-0.67 2.01 -0.34 1.02 0 0 Z " fill="#162939" transform="translate(183,107)"/>
<path d="M0 0 C0.66 0.99 1.32 1.98 2 3 C1.34 4.32 0.68 5.64 0 7 C-1.65 7 -3.3 7 -5 7 C-1.125 1.125 -1.125 1.125 0 0 Z " fill="#DEB308" transform="translate(105,150)"/>
<path d="M0 0 C1.98 1.65 3.96 3.3 6 5 C4.125 6.0625 4.125 6.0625 2 7 C0 6 0 6 -1 5 C-1 2 -1 2 0 0 Z " fill="#48BF2D" transform="translate(373,116)"/>
<path d="M0 0 C0.33 0.66 0.66 1.32 1 2 C-0.76227632 5.61730402 -2.64326421 7.80075931 -6 10 C-6.66 9.67 -7.32 9.34 -8 9 C-5.36 6.03 -2.72 3.06 0 0 Z " fill="#DCB30D" transform="translate(123,131)"/>
<path d="M0 0 C0.66 0.33 1.32 0.66 2 1 C0.02 3.31 -1.96 5.62 -4 8 C-4.99 7.67 -5.98 7.34 -7 7 C-4.69 4.69 -2.38 2.38 0 0 Z " fill="#E1B50C" transform="translate(160,93)"/>
<path d="M0 0 C2 3 2 3 2 5 C2.66 5.33 3.32 5.66 4 6 C1 7 1 7 -2 7 C-2.33 6.01 -2.66 5.02 -3 4 C-1.5625 1.8125 -1.5625 1.8125 0 0 Z " fill="#258BE7" transform="translate(201,254)"/>
<path d="M0 0 C2.97 0.99 5.94 1.98 9 3 C8.01 3.495 8.01 3.495 7 4 C6.67 4.99 6.34 5.98 6 7 C4.02 4.69 2.04 2.38 0 0 Z " fill="#082948" transform="translate(282,222)"/>
<path d="M0 0 C0.99 0 1.98 0 3 0 C1.60667426 3.36720387 0.0210714 4.9859524 -3 7 C-3 5.68 -3 4.36 -3 3 C-2.34 3 -1.68 3 -1 3 C-0.67 2.01 -0.34 1.02 0 0 Z " fill="#0A2A4A" transform="translate(238,212)"/>
<path d="M0 0 C0.66 1.32 1.32 2.64 2 4 C1.38125 4.103125 0.7625 4.20625 0.125 4.3125 C-2.36526484 4.87525373 -2.36526484 4.87525373 -4 8 C-4.66 7.67 -5.32 7.34 -6 7 C-4.02 4.69 -2.04 2.38 0 0 Z " fill="#2686DC" transform="translate(230,224)"/>
<path d="M0 0 C1.98 0.66 3.96 1.32 6 2 C6.33 3.65 6.66 5.3 7 7 C5.83040013 6.02433888 4.66438823 5.044375 3.5 4.0625 C2.8503125 3.51722656 2.200625 2.97195312 1.53125 2.41015625 C1.0259375 1.94480469 0.520625 1.47945312 0 1 C0 0.67 0 0.34 0 0 Z " fill="#0F3C36" transform="translate(385,128)"/>
<path d="M0 0 C0.66 0 1.32 0 2 0 C2.33 1.65 2.66 3.3 3 5 C0 5 0 5 -3 4 C-1.625 2 -1.625 2 0 0 Z " fill="#46C02C" transform="translate(337,106)"/>
<path d="M0 0 C0.66 0 1.32 0 2 0 C2 0.66 2 1.32 2 2 C3.32 1.67 4.64 1.34 6 1 C6 2.98 6 4.96 6 7 C1.125 3.375 1.125 3.375 0 0 Z " fill="#093059" transform="translate(294,234)"/>
<path d="M0 0 C0.66 0.33 1.32 0.66 2 1 C1.67 1.99 1.34 2.98 1 4 C1.99 4.33 2.98 4.66 4 5 C3.34 5.66 2.68 6.32 2 7 C0.35 5.02 -1.3 3.04 -3 1 C-2.01 0.67 -1.02 0.34 0 0 Z " fill="#062E57" transform="translate(279,215)"/>
<path d="M0 0 C0 0.99 0 1.98 0 3 C0.99 4.485 0.99 4.485 2 6 C0.02 6 -1.96 6 -4 6 C-2.84826645 3.53199953 -1.95216435 1.95216435 0 0 Z " fill="#EBBB08" transform="translate(96,160)"/>
</svg>
